<?xml version="1.0" encoding="UTF-8" standalone="no"?>
<!DOCTYPE svg PUBLIC "-//W3C//DTD SVG 1.1//EN" "http://www.w3.org/Graphics/SVG/1.1/DTD/svg11.dtd">
<svg width="100%" height="100%" viewBox="0 0 582 582" version="1.1" xmlns="http://www.w3.org/2000/svg" xmlns:xlink="http://www.w3.org/1999/xlink" xml:space="preserve" xmlns:serif="http://www.serif.com/" style="fill-rule:evenodd;clip-rule:evenodd;stroke-linejoin:round;stroke-miterlimit:2;">
    <g transform="matrix(1,0,0,1,-210,-191.558)">
        <path d="M696.387,698.134C644.729,744.992 576.174,773.558 501,773.558C426.506,773.558 358.513,745.507 307.024,699.405L502.341,504.088L696.387,698.134ZM274.028,664.597C263.936,652.034 254.868,638.622 246.946,624.484L502.341,369.088L756.013,622.759C748.174,636.976 739.181,650.469 729.163,663.105L536.244,470.186L536.56,469.87L502.657,435.967L502.341,436.283L501.928,435.87L468.025,469.772L468.439,470.186L274.028,664.597ZM225.932,577.693C215.609,547.879 210,515.868 210,482.558C210,321.951 340.393,191.558 501,191.558C661.607,191.558 792,321.951 792,482.558C792,515.13 786.637,546.458 776.752,575.694L536.244,335.186L536.56,334.87L502.657,300.967L502.341,301.283L501.928,300.87L468.025,334.772L468.439,335.186L225.932,577.693Z" 
        style="fill:rgb(81,164,172);" 
        opacity="0.5" />
    </g>
</svg>
