<?xml version="1.0" encoding="UTF-8" standalone="no"?>
<!DOCTYPE svg PUBLIC "-//W3C//DTD SVG 1.1//EN" "http://www.w3.org/Graphics/SVG/1.1/DTD/svg11.dtd">
<svg width="100%" height="100%" viewBox="0 0 890 704" version="1.1" xmlns="http://www.w3.org/2000/svg" xmlns:xlink="http://www.w3.org/1999/xlink" xml:space="preserve" xmlns:serif="http://www.serif.com/" style="fill-rule:evenodd;clip-rule:evenodd;stroke-linejoin:round;stroke-miterlimit:2;">
    <g transform="matrix(1,0,0,1,-666.415,-907.389)">
        <path d="M1033.21,1273.69C1032.6,1275.08 1032.15,1275.96 1031.91,1276.28C1027.05
        ,1282.55 875.74,1367.25 870.066,1367.08C864.299,1366.9 744.65,1300.36 738.939,1294.44C733.16,1288.45 666.319,1180.03 666.415,1175.41C666.511,1170.84 696.674,1092.5 696.674,1092.5C696.674,1092.5 731.53,991.303 735.261,986.649C740.444,980.183 882.583,907.395 888.786,907.389C894.47,907.383 1027.52,970.926 1032.06,974.301C1039.18,979.594 1100.48,1082.95 1100.48,1087.61C1100.48,1089.73 1087.08,1128.11 1072.1,1169.72L1163.31,1217.95C1165.57,1212.17 1167.21,1208.34 1167.89,1207.49C1173.4,1200.64 1324.36,1123.55 1330.95,1123.54C1336.98,1123.54 1478.3,1190.84 1483.12,1194.41C1490.68,1200.02 1555.79,1309.5 1555.79,1314.43C1555.79,1319.36 1487.53,1508.38 1482.95,1514.27C1477.8,1520.9 1317.09,1610.62 1311.07,1610.43C1304.94,1610.24 1177.86,1539.77 1171.8,1533.5C1165.66,1527.16 1094.67,1412.32 1094.77,1407.42C1094.86,1403.09 1120.56,1336.11 1125.93,1322.15L1033.21,1273.69ZM1334.05,1159.63L1436.32,1209.6C1436.32,1209.6 1312.26,1278.45 1311.17,1278.66C1310.08,1278.88 1237.11,1483.98 1236.88,1488.69C1236.64,1493.41 1269.31,1544.17 1269.31,1544.17L1199.85,1505.41L1134.38,1404.28L1200.57,1231.6L1334.05,1159.63ZM891.707,941.466L987.997,988.641C987.997,988.641 871.194,1053.64 870.164,1053.85C869.134,1054.05 800.433,1247.69 800.213,1252.14C799.992,1256.59 830.749,1304.52 830.749,1304.52L765.351,1267.92L703.712,1172.44L766.025,1009.41L891.707,941.466Z" 
        style="fill:rgb(195,176,112);" 
        opacity="0.5"/>
    </g>
</svg>
